<?xml version="1.0" encoding="utf-8"?>
<!-- Generator: Adobe Illustrator 20.1.0, SVG Export Plug-In . SVG Version: 6.00 Build 0)  -->
<svg version="1.1" id="Ebene_1" xmlns="http://www.w3.org/2000/svg" xmlns:xlink="http://www.w3.org/1999/xlink" x="0px" y="0px"
	 viewBox="0 0 407 467.1" style="enable-background:new 0 0 407 467.1;" xml:space="preserve">
<style type="text/css">
	.st0{fill-rule:evenodd;clip-rule:evenodd;fill:#E14D11;}
	.st1{fill-rule:evenodd;clip-rule:evenodd;fill:#AD2817;}
	.st2{opacity:0.75;fill-rule:evenodd;clip-rule:evenodd;fill:#262626;}
	.st3{fill-rule:evenodd;clip-rule:evenodd;fill:#EC681C;}
</style>
<g>
</g>
<polygon class="st0" points="202.9,0 404.1,116.2 404.1,249 202.9,365.1 87.9,298.7 87.9,166 202.9,99.6 317.8,166 317.8,249 
	361,224.1 361,141.1 202.9,49.8 44.8,141.1 44.8,323.6 202.9,414.9 404.1,298.7 404.1,348.5 202.9,464.7 1.6,348.5 1.6,116.2 "/>
<path class="st1" d="M404.1,116.2V249L202.9,365.1V232.4l115-66.4v83l43.1-24.9v-83L404.1,116.2z M202.9,414.9l201.2-116.2v49.8
	L202.9,464.7V414.9z"/>
<polygon class="st2" points="102.3,171.9 202.8,253.3 303.3,171.9 "/>
<polygon class="st3" points="87.9,166 202.9,99.6 317.8,166 202.9,232.4 "/>
<polygon class="st3" points="44.8,141.1 1.6,116.2 202.9,0 404.1,116.2 361,141.1 202.9,49.8 "/>
</svg>
